<?xml version="1.0" encoding="utf-8"?>
<!-- Generator: Adobe Illustrator 19.0.0, SVG Export Plug-In . SVG Version: 6.00 Build 0)  -->
<svg version="1.1" id="Layer_1" xmlns="http://www.w3.org/2000/svg" xmlns:xlink="http://www.w3.org/1999/xlink" x="0px" y="0px"
	 viewBox="0 0 512 512" style="enable-background:new 0 0 512 512;" xml:space="preserve">
<style type="text/css">
	.st0{fill:#F42F4C;}
	.st1{fill:#3E4347;}
</style>
<g id="XMLID_2_">
	<circle id="XMLID_4_" class="st0" cx="256" cy="256" r="256"/>
	<path id="XMLID_10_" class="st1" d="M400.1,340.3c-7.9-13.4-29.1-3.2-40.2-3.2c6.3-5.5,21.3-16.5,29.9-16.5
		c-6.3-4.7-17.3-0.8-21.3,3.9c-15.8,18.1-24.4,8.7-47.3,1.6c18.1-18.9-51.2-32.3-29.1-48c3.9-3.2,11.8,26.8,23.6,21.3
		c4.7-1.6-19.7-21.3-7.1-26c3.9-1.6,21.3,48.8,33.1,28.4c3.9-7.9-26.8-14.2-18.1-29.9c-6.3,11,74.8,52.8,64.6,26
		c-4.7-12.6-54.4-3.2-50.4-37c-0.8,8.7,57.5,35.4,51.2,11c-1.6-6.3-59.1-1.6-48.8-29.1c1.6-3.9,50.4,33.1,48.8,6.3
		c-0.8-10.2-52-2.4-47.3-24.4c0-0.8,52.8,22.1,47.3-1.6c-0.8-3.2-59.1,3.2-48-17.3c-4.7,9.5,69.3,4.7,47.3-13.4
		c-7.9-6.3-40.2,22.8-47.3-2.4c0.8,3.2,63.8-4.7,46.5-22.8c-3.9-4.7-44.1,26.8-44.9,6.3c0-3.9,52.8-29.1,44.9-41.7
		c-9.5-15.8-61.4,27.6-67.7,29.9c-40.2,18.9,0,7.9-19.7,31.5c-11.8,13.4-21.3-7.9-18.1-17.3c7.1-19.7,48-17.3,49.6-29.9
		c-6.3,3.9-11.8,3.2-17.3,0c0.8,0,43.3-6.3,29.1-11.8c-1.6-0.8-7.1,2.4-11.8,4.7c0.8-20.5-54.4-4.7-60.7-3.9
		c22.8,19.7-18.9,8.7,5.5,18.9c-6.3,0.8-11,3.2-16.5,7.9c11,0.8-6.3,13.4-6.3,13.4s-17.3-11.8-7.1-14.2c-3.9-3.9-10.2-7.1-16.5-7.9
		c23.6-10.2-18.1,0.8,4.7-18.9c-4.7,0-61.4-16.5-60.7,3.9c-5.5-2.4-10.2-5.5-11.8-5.5c-13.4,6.3,28.4,11.8,29.1,11.8
		c-5.5,3.9-11,3.9-17.3,0c1.6,12.6,42.5,10.2,49.6,29.9c3.2,9.5-6.3,30.7-18.1,17.3c-20.5-23.6,19.7-12.6-19.7-31.5
		c-6.3-2.4-58.3-44.9-67.7-29.9c-7.9,12.6,44.9,37.8,44.9,41.7c2.4,21.3-37-10.2-41-5.5C104,184.3,167,193,167.8,189
		c-6.3,26-39.4-3.2-47.3,2.4c-22.1,18.1,52,22.8,47.3,13.4c10.2,19.7-47.3,13.4-48,17.3c-6.3,23.6,47.3,0.8,47.3,1.6
		c4.7,22.8-46.5,14.2-47.3,24.4c-1.6,27.6,47.3-9.5,48.8-6.3c10.2,27.6-47.3,22.8-48.8,29.1c-7.1,26,52-1.6,51.2-11
		c3.9,33.1-44.9,23.6-50.4,37c-10.2,27.6,70.9-14.2,64.6-26c8.7,15.8-22.1,22.1-18.1,29.9c11.8,20.5,29.1-29.9,33.1-28.4
		c12.6,3.9-11.8,23.6-7.1,26c11.8,5.5,19.7-24.4,23.6-21.3c22.1,15.8-47.3,29.1-29.1,48c-22.1,7.1-32.3,16.5-47.3-1.6
		c-3.9-5.5-16.5-8.7-21.3-3.9c8.7,0,23.6,11.8,29.9,16.5c-11,0-32.3-10.2-40.2,3.2c9.5-3.9,30.7,0,40.2,0.8
		c-10.2,8.7-29.1,2.4-25.2,23.6c5.5-17.3,56.7-29.9,62.2-6.3c6.3-11-18.1-17.3-22.8-18.9c3.2-0.8,43.3-0.8,43.3-0.8
		s22.1-43.3,32.3-33.1c23.6,26-39.4,40.2-41.7,44.9c-7.1,16.5,32.3,1.6,30.7,0.8c10.2,9.5-26,18.1-26,20.5
		c0.8,18.1,29.9-7.1,31.5-7.1c13.4,3.2-19.7,23.6-18.9,21.3c-2.4,18.9,29.1-6.3,28.4-10.2c3.2,4.7,3.2,9.5-0.8,15.8
		c-11,19.7-0.8,22.1,11.8,42.5c12.6-20.5,22.8-22.1,11.8-42.5c-3.2-5.5-3.2-10.2-0.8-15.8c-0.8,3.9,31.5,29.1,28.4,10.2
		c0,2.4-33.1-18.9-18.9-21.3c1.6,0,30.7,24.4,31.5,7.1c0-3.2-37-11-26-20.5c-0.8,0.8,37.8,16.5,30.7-0.8
		c-1.6-4.7-65.4-18.9-41.7-44.9c10.2-11,32.3,33.1,32.3,33.1s40.2,0,43.3,0.8c-4.7,1.6-29.9,7.9-22.8,18.9
		c6.3-24.4,57.5-11,62.2,6.3c3.2-21.3-15.8-14.2-26-23.6C369.4,340.3,390.7,336.3,400.1,340.3 M333.2,139.4
		c-5.5,2.4-10.2,3.9-13.4,3.2C321.4,137.8,328.5,133.9,333.2,139.4 M305.6,135.5c8.7,1.6,8.7,3.9,0,6.3
		C297,139.4,297,137.1,305.6,135.5 M179.6,139.4c3.9-4.7,11-0.8,13.4,3.2C189,143.4,184.3,141.8,179.6,139.4 M206.4,141.8
		c-8.7-2.4-8.7-3.9,0-6.3C215,137.1,215,139.4,206.4,141.8"/>
</g>
</svg>
