<svg width="38" height="30" viewBox="0 0 38 30" fill="none" xmlns="http://www.w3.org/2000/svg">
<path d="M2.2225 16.2354C1.80557 15.7343 1.47475 15.3107 1.23948 15C1.47475 14.6893 1.80557 14.2657 2.2225 13.7646C3.13624 12.6666 4.45719 11.2042 6.08588 9.74474C9.37693 6.79563 13.7667 4 18.5 4C23.2333 4 27.6231 6.79563 30.9141 9.74474C32.5428 11.2042 33.8638 12.6666 34.7775 13.7646C35.1944 14.2657 35.5252 14.6893 35.7605 15C35.5252 15.3107 35.1944 15.7343 34.7775 16.2354C33.8638 17.3334 32.5428 18.7958 30.9141 20.2553C27.6231 23.2044 23.2333 26 18.5 26C13.7667 26 9.37693 23.2044 6.08588 20.2553C4.45719 18.7958 3.13624 17.3334 2.2225 16.2354Z" stroke="black" stroke-width="2"/>
<circle cx="18.5" cy="14.5" r="6.5" stroke="black" stroke-width="2"/>
</svg>
