<svg width="250" height="66" viewBox="0 0 250 66" fill="none" xmlns="http://www.w3.org/2000/svg">
<g clip-path="url(#clip0)">
<path d="M90.99 20.2555C90.2004 20.8403 89.2389 21.1459 88.2565 21.1242V21.8658H87.0699V21.1242C86.089 21.1365 85.1302 20.8318 84.3364 20.2555C84.0518 19.9809 83.8255 19.6517 83.671 19.2876C83.5164 18.9236 83.4367 18.5322 83.4367 18.1368C83.4367 17.7413 83.5164 17.3499 83.671 16.9858C83.8255 16.6218 84.0518 16.2927 84.3364 16.018C85.1276 15.4341 86.0866 15.1219 87.0699 15.1281V14.4289H88.2565V15.1281C89.2399 15.1219 90.1988 15.4341 90.99 16.018C91.2745 16.2927 91.5009 16.6218 91.6554 16.9858C91.81 17.3499 91.8896 17.7413 91.8896 18.1368C91.8896 18.5322 91.81 18.9236 91.6554 19.2876C91.5009 19.6517 91.2745 19.9809 90.99 20.2555ZM85.2687 19.4928C85.7923 19.8767 86.4209 20.0911 87.0699 20.1072V16.0603C85.4383 16.1875 84.633 16.8443 84.633 18.1791C84.6313 18.4352 84.6875 18.6883 84.7976 18.9195C84.9077 19.1507 85.0688 19.3539 85.2687 19.514V19.4928ZM90.0789 19.4928C90.282 19.3134 90.4425 19.091 90.5488 18.8418C90.6552 18.5925 90.7045 18.3227 90.6934 18.052C90.7059 17.7842 90.6571 17.5171 90.5506 17.271C90.4441 17.025 90.2827 16.8065 90.0789 16.6324C89.5495 16.2468 88.9115 16.0391 88.2565 16.0392V20.086C88.9081 20.0853 89.5438 19.8857 90.0789 19.514V19.4928Z" fill="black"/>
<path d="M95.5035 21.2302C94.9214 20.9281 94.4334 20.4719 94.0928 19.9115C93.7522 19.351 93.5721 18.7078 93.5721 18.052C93.5721 17.3962 93.7522 16.753 94.0928 16.1925C94.4334 15.6321 94.9214 15.1759 95.5035 14.8738C96.1003 14.5681 96.7612 14.4083 97.4318 14.4077C98.103 14.4033 98.765 14.5634 99.3601 14.8738C99.9485 15.1706 100.443 15.6248 100.788 16.1859C101.134 16.7471 101.317 17.3931 101.317 18.052C101.317 18.7109 101.134 19.3569 100.788 19.9181C100.443 20.4792 99.9485 20.9334 99.3601 21.2302C98.765 21.5406 98.103 21.7007 97.4318 21.6963C96.7612 21.6957 96.1003 21.5359 95.5035 21.2302ZM98.7032 20.2343C99.0623 20.0237 99.3614 19.7246 99.572 19.3656C99.7816 18.9747 99.8913 18.538 99.8913 18.0944C99.8913 17.6508 99.7816 17.2141 99.572 16.8231C99.3614 16.4641 99.0623 16.165 98.7032 15.9544C98.3141 15.7402 97.876 15.6306 97.4318 15.6366C97.0057 15.6318 96.5857 15.7389 96.2139 15.9471C95.8421 16.1553 95.5314 16.4573 95.3128 16.8231C95.105 17.2146 94.9964 17.6511 94.9964 18.0944C94.9964 18.5376 95.105 18.9741 95.3128 19.3656C95.5314 19.7314 95.8421 20.0335 96.2139 20.2417C96.5857 20.4499 97.0057 20.5569 97.4318 20.5522C97.876 20.5582 98.3141 20.4486 98.7032 20.2343Z" fill="black"/>
<path d="M109.574 14.5984V21.6328H108.281V18.6453H104.594V21.6328H103.28V14.6408H104.594V17.3952H108.196V14.5137L109.574 14.5984Z" fill="black"/>
<path d="M119.215 20.4886V23.0735H118.028V21.6327H112.667V23.1159H111.46V20.531H111.756C112.201 20.531 112.519 20.192 112.689 19.5563C112.89 18.6733 112.997 17.7712 113.006 16.8655V14.7467H118.134V20.6369L119.215 20.4886ZM113.939 19.1962C113.88 19.6702 113.689 20.1181 113.388 20.4886H116.927V15.7001H114.193V16.929C114.155 17.6893 114.07 18.4464 113.939 19.1962Z" fill="black"/>
<path d="M130.785 14.5984V21.6327H129.492V15.7001H125.784V21.6327H124.513V14.6408L130.785 14.5984Z" fill="black"/>
<path d="M134.79 21.2302C134.201 20.9334 133.707 20.4792 133.361 19.9181C133.016 19.3569 132.833 18.7109 132.833 18.052C132.833 17.3931 133.016 16.7471 133.361 16.186C133.707 15.6248 134.201 15.1706 134.79 14.8738C135.387 14.5688 136.048 14.4098 136.718 14.4098C137.388 14.4098 138.049 14.5688 138.646 14.8738C139.228 15.1759 139.716 15.6321 140.057 16.1925C140.398 16.753 140.578 17.3962 140.578 18.052C140.578 18.7078 140.398 19.351 140.057 19.9115C139.716 20.4719 139.228 20.9281 138.646 21.2302C138.049 21.5352 137.388 21.6942 136.718 21.6942C136.048 21.6942 135.387 21.5352 134.79 21.2302ZM137.968 20.2343C138.338 20.0307 138.646 19.7305 138.858 19.3656C139.068 18.9747 139.178 18.538 139.178 18.0944C139.178 17.6508 139.068 17.2141 138.858 16.8231C138.646 16.4583 138.338 16.1581 137.968 15.9544C137.584 15.7467 137.155 15.638 136.718 15.638C136.282 15.638 135.852 15.7467 135.468 15.9544C135.098 16.1581 134.79 16.4583 134.578 16.8231C134.37 17.2146 134.261 17.6511 134.261 18.0944C134.261 18.5376 134.37 18.9741 134.578 19.3656C134.79 19.7305 135.098 20.0307 135.468 20.2343C135.852 20.442 136.282 20.5508 136.718 20.5508C137.155 20.5508 137.584 20.442 137.968 20.2343Z" fill="black"/>
<path d="M149.496 20.4886V23.0735H148.309V21.6327H142.948V23.1159H141.74V20.531H142.037C142.461 20.531 142.778 20.192 142.948 19.5563C143.17 18.677 143.277 17.7724 143.266 16.8655V14.7467H148.394V20.6369L149.496 20.4886ZM144.219 19.1962C144.161 19.6702 143.97 20.1181 143.668 20.4886H147.228V15.7001H144.495V16.929C144.461 17.6906 144.369 18.4485 144.219 19.1962Z" fill="black"/>
<path d="M158.756 20.4886V23.0735H157.569V21.6327H152.229V23.1159H151.021V20.531H151.212C151.657 20.531 151.954 20.192 152.144 19.5563C152.346 18.6733 152.452 17.7712 152.462 16.8655V14.7467H157.569V20.6369L158.756 20.4886ZM153.458 19.1962C153.415 19.6704 153.231 20.1207 152.928 20.4886H156.467V15.7001H153.734V16.929C153.701 17.6907 153.609 18.4488 153.458 19.1962Z" fill="black"/>
<path d="M166.045 20.5098V21.6328H160.79V14.6408H165.897V15.7214H162.104V17.5435H165.473V18.6241H162.104V20.5522L166.045 20.5098Z" fill="black"/>
<path d="M172.572 14.895C172.995 15.0766 173.356 15.3787 173.61 15.7637C173.855 16.1575 173.98 16.6139 173.97 17.0774C173.977 17.5472 173.852 18.0095 173.61 18.4122C173.356 18.7972 172.995 19.0993 172.572 19.2809C172.068 19.4868 171.527 19.5877 170.982 19.5775H169.414V21.6327H168.164V14.6408H171.025C171.552 14.6228 172.078 14.7092 172.572 14.895ZM172.211 18.1156C172.362 17.9896 172.48 17.83 172.558 17.6496C172.635 17.4692 172.669 17.2732 172.656 17.0774C172.669 16.8846 172.635 16.6917 172.558 16.5147C172.48 16.3377 172.361 16.1819 172.211 16.0603C171.842 15.7975 171.393 15.6703 170.94 15.7002H169.414V18.4758H170.94C171.393 18.5056 171.842 18.3784 172.211 18.1156Z" fill="black"/>
<path d="M181.938 18.6453H180.73V21.6328H179.48V18.6877H178.272L176.513 21.6328H175.008L177.127 17.9885L175.008 14.6408H176.64L178.356 17.5647H179.586V14.6408H180.836V17.5647H182.044L183.76 14.6408H185.116L182.997 17.9885L185.116 21.6328H183.633L181.938 18.6453Z" fill="black"/>
<path d="M189.651 18.6453H188.358V21.6328H187.066V14.6408H188.358V17.5647H189.693L191.685 14.6408H193.062L190.689 18.0308L193.168 21.6328H191.685L189.651 18.6453Z" fill="black"/>
<path d="M195.033 14.5984H196.304V19.514L200.076 14.556H201.284V21.6327H199.949V16.6748L196.241 21.6327H195.033V14.5984Z" fill="black"/>
<path d="M84.7601 29.451L86.413 31.7817L88.0658 29.451H89.5703L87.2393 32.7987L89.761 36.4642H88.2353L86.413 33.9217L84.6118 36.4642H83.1073L85.6289 32.8835L83.2768 29.4934L84.7601 29.451Z" fill="black"/>
<path d="M96.118 29.7477C96.5345 29.9216 96.8889 30.2169 97.1351 30.5952C97.3875 30.9934 97.513 31.4589 97.4953 31.93C97.5231 32.3956 97.3965 32.8573 97.1351 33.2436C96.8988 33.6354 96.5419 33.9402 96.118 34.1123C95.6132 34.316 95.0729 34.4168 94.5287 34.409H92.9607V36.4642H91.6469V29.4934H94.5287C95.0707 29.4615 95.613 29.5483 96.118 29.7477ZM95.7577 32.947C95.9078 32.8254 96.0266 32.6696 96.104 32.4927C96.1814 32.3157 96.2153 32.1228 96.2027 31.93C96.212 31.7346 96.1768 31.5396 96.0997 31.3597C96.0226 31.1799 95.9056 31.0199 95.7577 30.8918C95.3772 30.6349 94.9237 30.5085 94.4652 30.5316H92.9607V33.3072H94.4652C94.9182 33.3406 95.3684 33.2131 95.7366 32.947H95.7577Z" fill="black"/>
<path d="M99.4659 29.451H100.759V34.3454L104.509 29.3875H105.717V36.4642H104.424V31.5274L100.674 36.4642H99.4659V29.451Z" fill="black"/>
<path d="M109.701 36.0616C109.136 35.7593 108.667 35.3059 108.345 34.7522C108.023 34.1984 107.862 33.5661 107.878 32.9258C107.871 32.2758 108.047 31.6368 108.387 31.0825C108.704 30.5422 109.167 30.1017 109.722 29.8112C110.307 29.4939 110.964 29.3334 111.629 29.3451C112.166 29.3438 112.698 29.4444 113.197 29.6417C113.661 29.8344 114.075 30.1317 114.405 30.5104L113.557 31.2944C113.324 31.0328 113.036 30.8253 112.714 30.6863C112.392 30.5473 112.043 30.48 111.693 30.4892C111.244 30.4847 110.801 30.5864 110.4 30.7859C110.025 30.9916 109.716 31.3004 109.51 31.6758C109.302 32.0635 109.194 32.4966 109.194 32.9364C109.194 33.3763 109.302 33.8093 109.51 34.1971C109.716 34.5725 110.025 34.8812 110.4 35.087C110.801 35.2865 111.244 35.3882 111.693 35.3836C112.045 35.3888 112.394 35.3175 112.716 35.1749C113.038 35.0322 113.325 34.8216 113.557 34.5573L114.405 35.3624C114.069 35.7348 113.657 36.031 113.197 36.2311C112.698 36.4284 112.166 36.5291 111.629 36.5277C110.957 36.5422 110.292 36.3815 109.701 36.0616Z" fill="black"/>
<path d="M121.779 30.5316H119.427V36.4642H118.134V30.5316H115.825V29.451H121.737L121.779 30.5316Z" fill="black"/>
<path d="M123.665 29.451H124.936V34.3454L128.687 29.3875H129.895V36.4642H128.623V31.5274L124.873 36.4642H123.665V29.451Z" fill="black"/>
<path d="M137.269 34.8116H133.773L133.095 36.4218H131.738L134.896 29.451H136.167L139.325 36.4218H137.968L137.269 34.8116ZM136.845 33.7946L135.51 30.7435L134.218 33.7946H136.845Z" fill="black"/>
<path d="M147.377 29.451V36.4642H146.084V33.4767H142.482V36.4642H141.168V29.4934H142.482V32.375H146.084V29.4934L147.377 29.451Z" fill="black"/>
<path d="M151.382 36.0616C150.826 35.7711 150.364 35.3307 150.047 34.7904C149.71 34.2277 149.541 33.581 149.559 32.9258C149.554 32.2789 149.722 31.6424 150.047 31.0825C150.364 30.5422 150.826 30.1017 151.382 29.8112C151.966 29.4939 152.623 29.3334 153.289 29.3451C153.825 29.3438 154.358 29.4444 154.857 29.6417C155.327 29.8232 155.743 30.1223 156.065 30.5104L155.217 31.2944C154.983 31.0328 154.695 30.8253 154.373 30.6863C154.051 30.5473 153.703 30.48 153.352 30.4892C152.911 30.4848 152.475 30.5866 152.081 30.7859C151.705 30.9916 151.397 31.3004 151.191 31.6758C150.983 32.0635 150.874 32.4966 150.874 32.9364C150.874 33.3763 150.983 33.8093 151.191 34.1971C151.397 34.5724 151.705 34.8812 152.081 35.087C152.475 35.2863 152.911 35.388 153.352 35.3836C153.704 35.3888 154.053 35.3175 154.375 35.1749C154.697 35.0322 154.984 34.8216 155.217 34.5573L156.065 35.3624C155.737 35.744 155.323 36.0419 154.857 36.2311C154.358 36.4284 153.825 36.5291 153.289 36.5277C152.623 36.5395 151.966 36.3789 151.382 36.0616Z" fill="black"/>
<path d="M160.557 33.4767H159.264V36.4642H157.993V29.4934H159.264V32.4173H160.599L162.612 29.4934H163.926L161.532 32.8623L164.011 36.4642H162.549L160.557 33.4767Z" fill="black"/>
<path d="M166.999 36.0616C166.436 35.764 165.967 35.3167 165.642 34.7692C165.316 34.2101 165.148 33.573 165.155 32.9258C165.147 32.2853 165.316 31.655 165.642 31.1037C165.967 30.5562 166.436 30.1089 166.999 29.8112C167.59 29.4913 168.255 29.3307 168.927 29.3451C169.599 29.3335 170.263 29.494 170.855 29.8112C171.41 30.1017 171.873 30.5422 172.19 31.0825C172.51 31.6482 172.677 32.2868 172.677 32.9365C172.677 33.5861 172.51 34.2247 172.19 34.7904C171.873 35.3307 171.41 35.7711 170.855 36.0616C170.263 36.3789 169.599 36.5393 168.927 36.5278C168.255 36.5422 167.59 36.3816 166.999 36.0616ZM170.177 35.087C170.549 34.884 170.852 34.5739 171.046 34.1971C171.267 33.8138 171.384 33.379 171.384 32.9365C171.384 32.4939 171.267 32.0591 171.046 31.6758C170.852 31.2989 170.549 30.9889 170.177 30.7859C169.79 30.5883 169.361 30.4866 168.927 30.4892C168.486 30.4872 168.05 30.5889 167.656 30.7859C167.291 30.9984 166.99 31.3059 166.787 31.6758C166.579 32.0635 166.47 32.4966 166.47 32.9365C166.47 33.3763 166.579 33.8094 166.787 34.1971C166.99 34.5669 167.291 34.8745 167.656 35.087C168.05 35.284 168.486 35.3856 168.927 35.3836C169.397 35.4041 169.864 35.3018 170.283 35.087H170.177Z" fill="black"/>
<path d="M174.86 29.451H176.132V34.3454L179.882 29.3875H181.09V36.4642H179.819V31.5274L176.068 36.4642H174.86V29.451ZM176.619 28.6035C176.461 28.4732 176.337 28.3072 176.256 28.1194C176.175 27.9315 176.139 27.7271 176.153 27.5229H177.064C177.058 27.6296 177.076 27.7363 177.116 27.8352C177.156 27.9342 177.218 28.0229 177.297 28.095C177.494 28.2357 177.734 28.3031 177.975 28.2857C178.21 28.2999 178.442 28.2325 178.632 28.095C178.717 28.0271 178.785 27.9397 178.829 27.8401C178.873 27.7405 178.893 27.6317 178.886 27.5229H179.797C179.802 27.728 179.76 27.9314 179.676 28.1183C179.592 28.3053 179.467 28.471 179.31 28.6035C178.901 28.8397 178.437 28.964 177.964 28.964C177.492 28.964 177.028 28.8397 176.619 28.6035Z" fill="black"/>
<path d="M189.778 33.4767H188.485V36.4642H187.235V29.4934H188.507V32.4173H189.842L191.855 29.4934H193.232L190.837 32.8623L193.317 36.4642H191.855L189.778 33.4767Z" fill="black"/>
<path d="M201.538 29.451L198.487 35.087C198.269 35.5355 197.941 35.9218 197.533 36.21C197.183 36.4457 196.769 36.5711 196.347 36.5702C195.99 36.5739 195.636 36.5016 195.308 36.3583L195.626 35.3413C195.845 35.4153 196.074 35.4581 196.304 35.4684C196.521 35.4641 196.732 35.4006 196.915 35.2848C197.098 35.169 197.246 35.0054 197.343 34.8116L197.449 34.6421L194.673 29.451H196.071L198.19 33.5403L200.309 29.451H201.538Z" fill="black"/>
<path d="M208.955 29.451V36.4642H207.683V30.5316H204.929V32.2902C204.911 33.086 204.833 33.8793 204.696 34.6632C204.612 35.1737 204.401 35.6547 204.081 36.0616C203.935 36.2222 203.754 36.3475 203.552 36.4283C203.35 36.509 203.133 36.543 202.916 36.5278C202.632 36.5389 202.347 36.5176 202.068 36.4642V35.3413H202.365C202.57 35.3363 202.767 35.2625 202.924 35.1318C203.082 35.0011 203.191 34.8211 203.234 34.6209C203.442 33.8759 203.549 33.1062 203.551 32.3326L203.657 29.451H208.955Z" fill="black"/>
<path d="M216.753 32.375C216.982 32.5868 217.162 32.8467 217.279 33.136C217.396 33.4254 217.448 33.7371 217.431 34.0488C217.453 34.3795 217.398 34.7109 217.269 35.0163C217.14 35.3217 216.942 35.5927 216.689 35.8074C216.083 36.2675 215.328 36.4864 214.57 36.4218H211.604V29.451H212.896V31.8029H214.782C215.487 31.7433 216.189 31.9472 216.753 32.375ZM215.715 35.087C215.857 34.9601 215.969 34.8028 216.042 34.6268C216.116 34.4507 216.149 34.2604 216.138 34.07C216.138 33.2225 215.609 32.7987 214.549 32.7987H212.896V35.426H214.549C214.966 35.4567 215.379 35.3364 215.715 35.087Z" fill="black"/>
<path d="M223.936 30.5316H221.627V36.4642H220.334V30.5316H218.024V29.451H223.936V30.5316Z" fill="black"/>
<path d="M232.2 29.451L229.17 35.087C228.952 35.5356 228.624 35.9218 228.217 36.21C227.86 36.4497 227.439 36.5754 227.009 36.5702C226.659 36.5715 226.312 36.4993 225.992 36.3583L226.31 35.3413C226.528 35.4153 226.757 35.4581 226.988 35.4684C227.204 35.4641 227.415 35.4006 227.598 35.2848C227.781 35.169 227.929 35.0054 228.026 34.8116L228.132 34.6421L225.377 29.451H226.754L228.873 33.5403L230.992 29.451H232.2Z" fill="black"/>
<path d="M238.515 29.7477C238.931 29.9216 239.286 30.2169 239.532 30.5952C239.784 30.9934 239.91 31.4589 239.892 31.93C239.92 32.3956 239.793 32.8573 239.532 33.2436C239.296 33.6354 238.939 33.9402 238.515 34.1123C238.01 34.316 237.47 34.4168 236.926 34.409H235.358V36.4642H234.044V29.4934H236.926C237.468 29.4615 238.01 29.5483 238.515 29.7477ZM238.155 32.947C238.305 32.8254 238.424 32.6696 238.501 32.4927C238.578 32.3157 238.612 32.1228 238.6 31.93C238.609 31.7346 238.574 31.5396 238.497 31.3597C238.42 31.1799 238.303 31.0199 238.155 30.8918C237.774 30.6349 237.321 30.5085 236.862 30.5316H235.358V33.3072H236.862C237.301 33.3307 237.734 33.2036 238.091 32.947H238.155Z" fill="black"/>
<path d="M247.033 32.375C247.263 32.5868 247.443 32.8467 247.56 33.136C247.677 33.4254 247.729 33.7371 247.712 34.0488C247.734 34.3795 247.679 34.7109 247.55 35.0163C247.421 35.3217 247.222 35.5927 246.97 35.8074C246.364 36.2675 245.609 36.4864 244.851 36.4218H241.842V29.451H243.134V31.8029H245.063C245.767 31.7473 246.468 31.9508 247.033 32.375ZM245.995 35.087C246.138 34.9601 246.25 34.8028 246.323 34.6268C246.396 34.4507 246.429 34.2604 246.419 34.07C246.419 33.2225 245.889 32.7987 244.83 32.7987H243.177V35.426H244.83C245.246 35.4568 245.66 35.3364 245.995 35.087ZM248.707 29.451H250V36.4642H248.686L248.707 29.451Z" fill="black"/>
<path d="M83.9761 44.2825H85.2475V49.1769L88.9982 44.2189H90.206V51.2957H88.9345V46.3377L85.1839 51.2957H83.9761V44.2825Z" fill="black"/>
<path d="M102.475 44.2825V51.2957H101.182V48.287H97.5801V51.2957H96.2664V44.3037H97.5801V47.1852H101.182V44.3037L102.475 44.2825Z" fill="black"/>
<path d="M109.892 49.643H106.395L105.717 51.2745H104.361L107.518 44.2825H108.79L111.947 51.2745H110.591L109.892 49.643ZM109.468 48.626L108.154 45.575L106.84 48.626H109.468Z" fill="black"/>
<path d="M114.829 50.9143C114.247 50.6122 113.759 50.156 113.418 49.5955C113.078 49.0351 112.897 48.3919 112.897 47.7361C112.897 47.0803 113.078 46.4371 113.418 45.8767C113.759 45.3162 114.247 44.8601 114.829 44.5579C115.363 44.2854 115.949 44.1294 116.548 44.1002C117.147 44.0709 117.746 44.1692 118.304 44.3884C118.763 44.5908 119.174 44.8867 119.512 45.2571L118.664 46.0623C118.432 45.798 118.144 45.5873 117.822 45.4446C117.501 45.302 117.152 45.2308 116.8 45.2359C116.374 45.2333 115.955 45.3413 115.583 45.5493C115.212 45.7572 114.901 46.0581 114.681 46.4225C114.473 46.814 114.364 47.2505 114.364 47.6937C114.364 48.137 114.473 48.5735 114.681 48.965C114.901 49.3293 115.212 49.6302 115.583 49.8382C115.955 50.0462 116.374 50.1542 116.8 50.1515C117.152 50.1567 117.501 50.0855 117.822 49.9428C118.144 49.8002 118.432 49.5895 118.664 49.3252L119.512 50.1091C119.182 50.4878 118.768 50.7851 118.304 50.9778C117.808 51.1874 117.274 51.2886 116.736 51.2745C116.081 51.3092 115.426 51.1856 114.829 50.9143Z" fill="black"/>
<path d="M127.755 44.2825V51.2957H126.483V45.4055H123.665V47.1428C123.648 47.9456 123.57 48.746 123.432 49.5371C123.345 50.0401 123.133 50.5134 122.817 50.9143C122.671 51.0749 122.49 51.2002 122.288 51.2809C122.086 51.3616 121.869 51.3956 121.652 51.3804C121.419 51.4045 121.185 51.4045 120.953 51.3804V50.2574H121.249C121.454 50.2524 121.651 50.1786 121.809 50.048C121.966 49.9173 122.075 49.7373 122.118 49.5371C122.328 48.7997 122.435 48.0368 122.436 47.27V44.3672L127.755 44.2825Z" fill="black"/>
<path d="M135.637 50.1727V51.2957H130.403V44.3037H135.51V45.3843H131.696V47.2064H135.065V48.287H131.696V50.1939L135.637 50.1727Z" fill="black"/>
<path d="M145.003 50.1727V52.7576H143.817V51.2957H138.498V52.7788H137.29V50.1939H137.587C138.032 50.1939 138.35 49.8549 138.519 49.2193C138.721 48.3362 138.827 47.4341 138.837 46.5284V44.3037H143.965V50.1939L145.003 50.1727ZM139.727 48.8803C139.664 49.3531 139.474 49.7999 139.176 50.1727H142.736V45.3843H139.981V46.6132C139.944 47.3734 139.859 48.1305 139.727 48.8803Z" fill="black"/>
<path d="M146.974 44.2825H148.245V49.1769L151.996 44.2189H153.331V51.2957H152.06V46.3377L148.203 51.2957H146.974V44.2825Z" fill="black"/>
<path d="M161.277 44.2825V51.2957H160.006V49.3464H158.141L156.849 51.2957H155.45L156.955 49.1769C156.495 49.0305 156.098 48.7315 155.832 48.3294C155.554 47.9092 155.413 47.4132 155.429 46.9098C155.419 46.4262 155.544 45.9493 155.789 45.5326C156.033 45.142 156.387 44.8324 156.806 44.6427C157.296 44.439 157.823 44.3381 158.353 44.3461L161.277 44.2825ZM157.188 45.7445C157.044 45.8837 156.932 46.0523 156.858 46.2387C156.785 46.4251 156.753 46.6251 156.764 46.825C156.752 47.022 156.784 47.2191 156.857 47.4023C156.93 47.5855 157.043 47.7501 157.188 47.8844C157.519 48.1595 157.944 48.2962 158.374 48.2658H160.006V45.3843H158.417C157.978 45.3608 157.544 45.4879 157.188 45.7445Z" fill="black"/>
<path d="M32.9929 37.905C35.7079 37.905 37.909 35.7042 37.909 32.9894C37.909 30.2746 35.7079 28.0738 32.9929 28.0738C30.2778 28.0738 28.0768 30.2746 28.0768 32.9894C28.0768 35.7042 30.2778 37.905 32.9929 37.905Z" fill="url(#paint0_radial)"/>
<path d="M24.7075 17.0985C21.4528 18.7955 18.7974 21.4505 17.1003 24.705C16.7652 25.3425 16.2626 25.8767 15.6465 26.25C15.0305 26.6234 14.3243 26.8217 13.604 26.8237H0C0 27.5262 0.279006 28.1998 0.775743 28.6965C1.27248 29.1932 1.94626 29.4722 2.64875 29.4722H26.7206C27.376 28.3044 28.3448 27.343 29.5177 26.6966V2.56371C29.5177 1.86129 29.2386 1.18765 28.7419 0.690964C28.2452 0.194278 27.5714 -0.0847626 26.8689 -0.0847626V13.5178C26.8761 14.2563 26.6777 14.9823 26.2961 15.6146C25.9144 16.247 25.3644 16.7607 24.7075 17.0985Z" fill="url(#paint1_radial)"/>
<path d="M48.9066 24.705C47.2028 21.4554 44.5493 18.8021 41.2994 17.0986C40.6602 16.7653 40.1247 16.2632 39.7511 15.6468C39.3774 15.0304 39.1801 14.3233 39.1804 13.6026V-1.52588e-05C38.4779 -1.52588e-05 37.8042 0.279026 37.3074 0.775711C36.8107 1.2724 36.5316 1.94604 36.5316 2.64846V26.739C37.6981 27.3867 38.6597 28.3483 39.3075 29.5146H63.3794C64.0818 29.5146 64.7556 29.2356 65.2523 28.7389C65.749 28.2422 66.0281 27.5686 66.0281 26.8661H52.4241C51.6948 26.8687 50.9792 26.6679 50.3578 26.2861C49.7364 25.9043 49.2338 25.3567 48.9066 24.705Z" fill="url(#paint2_radial)"/>
<path d="M26.7206 36.4642H2.64875C1.94626 36.4642 1.27248 36.7432 0.775743 37.2399C0.279006 37.7366 0 38.4103 0 39.1127H13.604C14.3243 39.1147 15.0305 39.3131 15.6465 39.6864C16.2626 40.0597 16.7652 40.5939 17.1003 41.2315C18.7974 44.4859 21.4528 47.1409 24.7075 48.8379C25.3422 49.1766 25.8739 49.68 26.2468 50.2951C26.6197 50.9103 26.8199 51.6146 26.8265 52.3339V65.9364C27.529 65.9364 28.2027 65.6574 28.6995 65.1607C29.1962 64.664 29.4753 63.9904 29.4753 63.288V39.261C28.3151 38.6026 27.3613 37.6341 26.7206 36.4642Z" fill="url(#paint3_radial)"/>
<path d="M39.8373 36.4642H39.2652C38.6174 37.6305 37.6557 38.5921 36.4892 39.2398V63.3303C36.4892 64.0327 36.7683 64.7064 37.265 65.2031C37.7617 65.6998 38.4355 65.9788 39.138 65.9788V52.3762C39.14 51.656 39.3384 50.9499 39.7117 50.3339C40.0851 49.7179 40.6193 49.2154 41.257 48.8803C44.5068 47.1767 47.1605 44.5234 48.8642 41.2738C49.194 40.6364 49.6924 40.1018 50.3052 39.7281C50.918 39.3545 51.6216 39.1563 52.3394 39.1551H65.9434C65.9434 38.4526 65.6643 37.779 65.1676 37.2823C64.6708 36.7856 63.9971 36.5066 63.2946 36.5066L39.8373 36.4642Z" fill="url(#paint4_radial)"/>
</g>
<defs>
<radialGradient id="paint0_radial" cx="0" cy="0" r="1" gradientUnits="userSpaceOnUse" gradientTransform="translate(32.5691 29.8324) scale(5.36108 5.36051)">
<stop stop-color="#4388BA"/>
<stop offset="0.61" stop-color="#1F274A"/>
</radialGradient>
<radialGradient id="paint1_radial" cx="0" cy="0" r="1" gradientUnits="userSpaceOnUse" gradientTransform="translate(32.4843 32.7987) scale(30.7043 30.7011)">
<stop stop-color="#4388BA"/>
<stop offset="1" stop-color="#1F274A"/>
</radialGradient>
<radialGradient id="paint2_radial" cx="0" cy="0" r="1" gradientUnits="userSpaceOnUse" gradientTransform="translate(32.4843 32.7987) scale(30.7043 30.7011)">
<stop stop-color="#4388BA"/>
<stop offset="1" stop-color="#1F274A"/>
</radialGradient>
<radialGradient id="paint3_radial" cx="0" cy="0" r="1" gradientUnits="userSpaceOnUse" gradientTransform="translate(32.4843 32.7987) scale(30.7043 30.7011)">
<stop stop-color="#4388BA"/>
<stop offset="1" stop-color="#1F274A"/>
</radialGradient>
<radialGradient id="paint4_radial" cx="0" cy="0" r="1" gradientUnits="userSpaceOnUse" gradientTransform="translate(32.4843 32.7987) scale(30.7044 30.7011)">
<stop stop-color="#4388BA"/>
<stop offset="1" stop-color="#1F274A"/>
</radialGradient>
<clipPath id="clip0">
<rect width="250" height="66" fill="white"/>
</clipPath>
</defs>
</svg>
