<svg id="fe6175ab-a7cd-407f-b5e5-ca0dd9d5169f" data-name="Слой 1" xmlns="http://www.w3.org/2000/svg" xmlns:xlink="http://www.w3.org/1999/xlink" viewBox="0 0 66.0281 66.06356">
  <defs>
    <radialGradient id="adfd48f4-2ad5-4843-b285-762962ab45a0" data-name="Безымянный градиент 3" cx="-527.93088" cy="352.13633" r="1" gradientTransform="matrix(5.36108, 0, 0, -5.36051, 2862.84886, 1917.54741)" gradientUnits="userSpaceOnUse">
      <stop offset="0" stop-color="#4388ba"/>
      <stop offset="0.61" stop-color="#1f274a"/>
    </radialGradient>
    <radialGradient id="afcc2b7a-3b22-4417-b8b8-4a1cb2311d95" data-name="Безымянный градиент 5" cx="-627.8493" cy="406.11353" r="1" gradientTransform="matrix(30.7043, 0, 0, -30.7011, 19310.15762, 12501.01517)" gradientUnits="userSpaceOnUse">
      <stop offset="0" stop-color="#4388ba"/>
      <stop offset="1" stop-color="#1f274a"/>
    </radialGradient>
    <radialGradient id="f093749a-7799-40be-94be-c8925b5d2d85" cx="-627.84937" cy="406.11353" r="1" gradientTransform="matrix(30.7044, 0, 0, -30.7011, 19310.22199, 12501.01517)" xlink:href="#afcc2b7a-3b22-4417-b8b8-4a1cb2311d95"/>
  </defs>
  <path d="M32.9929,37.98976a4.9156,4.9156,0,1,0-4.9161-4.9156A4.91591,4.91591,0,0,0,32.9929,37.98976Z" fill="url(#adfd48f4-2ad5-4843-b285-762962ab45a0)"/>
  <path d="M24.7075,17.18326a17.926,17.926,0,0,0-7.6072,7.6065,3.9627,3.9627,0,0,1-3.4963,2.1187H0A2.64847,2.64847,0,0,0,2.64875,29.557H26.7206a7.18345,7.18345,0,0,1,2.7971-2.7756V2.64847A2.64863,2.64863,0,0,0,26.8689,0V13.60256a3.98282,3.98282,0,0,1-2.1614,3.5807Z" fill="url(#afcc2b7a-3b22-4417-b8b8-4a1cb2311d95)"/>
  <path d="M48.9066,24.78976a18.05247,18.05247,0,0,0-7.6072-7.6064,3.94084,3.94084,0,0,1-2.119-3.496V.08475a2.64861,2.64861,0,0,0-2.6488,2.64847V26.82376a7.14046,7.14046,0,0,1,2.7759,2.7756H63.3794a2.64858,2.64858,0,0,0,2.6487-2.6485H52.4241a3.92,3.92,0,0,1-3.5175-2.1611Z" fill="url(#afcc2b7a-3b22-4417-b8b8-4a1cb2311d95)"/>
  <path d="M26.7206,36.549H2.64875A2.64847,2.64847,0,0,0,0,39.19746H13.604a3.96254,3.96254,0,0,1,3.4963,2.1188,17.92636,17.92636,0,0,0,7.6072,7.6064,4.004,4.004,0,0,1,2.119,3.496v13.6025a2.64858,2.64858,0,0,0,2.6488-2.6484v-24.027A7.18262,7.18262,0,0,1,26.7206,36.549Z" fill="url(#afcc2b7a-3b22-4417-b8b8-4a1cb2311d95)"/>
  <path d="M39.8373,36.549h-.5721a7.14071,7.14071,0,0,1-2.776,2.7756v24.0905a2.64858,2.64858,0,0,0,2.6488,2.6485V52.461a3.9616,3.9616,0,0,1,2.119-3.4959,18.05326,18.05326,0,0,0,7.6072-7.6065,3.9199,3.9199,0,0,1,3.4752-2.1187h13.604a2.64858,2.64858,0,0,0-2.6488-2.6485Z" fill="url(#f093749a-7799-40be-94be-c8925b5d2d85)"/>
</svg>
